<?xml version="1.0" encoding="UTF-8"?><svg id="a" xmlns="http://www.w3.org/2000/svg" width="717.56" height="149.12" viewBox="0 0 717.56 149.12"><defs><style>.b{fill:#ff69b4;}.c{fill:#fff;}.d{stroke:#000;stroke-miterlimit:10;}</style></defs><path class="c" d="M42.1,39.63L87.06,5l-24.68,4.27L0,56.41c49.2-4.19,74-4.89,74.38-2.1.04.31-.21.66-.77,1.06-20.2,15.67-40.41,31.33-60.61,47l23.8-3.82,54.22-42.14c7.18-5.86,5.28-11.92,4.17-14.42-5.13-11.55-41.84-4.67-53.09-2.36Z"/><path class="c" d="M403.2,108.57l-15.73-14.68.23-72.45c.72-3.26,2.1-5.23,3.3-6.44,5.95-6.03,19.04-5.24,32.23,2.59-2.83,3.26-5.67,6.52-8.5,9.78-2.59-2.09-4.83-2.88-6.73-2.38-8.43,2.25-10.03,30.1-4.8,83.57Z"/><polygon class="b" points="361.99 4.62 412.95 58.54 412.95 78.33 361.99 24.08 361.99 4.62"/><path class="c" d="M176,96c4.44,1.28,11.11,2.3,17.29-.66,14.65-7,19.65-32.85,8.29-46.5-5.11-6.14-13.94-9.81-22.36-8.46-12.5,2-20.48,14.06-22.03,24.57-.22,1.49-2.23,15.66,7.81,25.04,4,3.74,8.4,5.31,11,6Z"/><path d="M191.92,52.99c8.17,5.56,5.19,17.96,4.66,20.15-.61,2.54-1.58,6.57-5.24,9.46-4.59,3.63-11.54,3.95-16.59.98-8.88-5.21-6.94-17.68-6.83-18.62.11-.93.79-5.97,4.88-9.8,4.82-4.52,13.27-6.14,19.11-2.16Z"/><path class="c" d="M112,9.33c2.07,10.97,3.72,25.16,3,41.67-.81,18.78-4.42,34.45-8,46,10.22-2.79,20.44-5.57,30.67-8.36-3.32-9.35-6.92-22.84-7.48-39.34-.74-21.5,3.99-38.73,7.82-49.3-8.67,3.11-17.33,6.22-26,9.33Z"/><polygon class="b" points="92.83 15.11 151.85 32.43 156.52 45.06 97.42 27.54 92.83 15.11"/><path class="c" d="M199.99,40.37v63.32c4.03-3.46,8.07-6.93,12.1-10.39v-44.11c-4.03-2.94-8.07-5.88-12.1-8.82Z"/><path class="c" d="M255.94,46.02c-1.75-.03-13.87-.04-21.94,9.98-6.97,8.66-7.06,20.02-3.51,28.08.93,2.11,3.41,7.32,9.2,10.79,6.94,4.16,14.03,2.75,16.25,2.21,2.17-.47,15.27-3.56,20.9-15.99,1.56-3.45,2.17-6.8,2.37-9.54.07-1.17.56-13.02-8.18-20.52-5.68-4.88-12.4-4.96-15.09-5.01Z"/><path class="c" d="M266,42c5.33,3.53,10.67,7.05,16,10.58v64.42c.04,7.41-2.41,11.8-4,14-7.78,10.77-27.04,13.59-47,5l6.19-15.07c6.82,4.78,11.33,4.64,13.81,4.07,14.79-3.4,19.05-36.27,19-54-.04-12.72-2.32-22.92-4-29Z"/><path class="d" d="M264.07,63.56c3.03,5.6.93,12.33-2.32,15.03-1.12.93-2.72,1.66-2.83,1.71-1.1.5-3.5,1.58-6.41,1.2-2.76-.36-4.57-1.85-5.85-2.91-1.13-.93-3.46-3.25-4.88-7.06-1.32-3.55-.79-7.57,1.39-10.48,2.26-3.01,5.76-3.58,6.8-3.77,4.54-.81,11.07.67,14.09,6.27Z"/><path class="c" d="M324.18,42.96c-2.91-.11-17.16-.64-25.18,9.04-10.16,12.27-4.76,34.21,6,45,14.23,14.27,43.24,14.49,67.55-4.02-4.85-2.33-9.7-4.65-14.55-6.98-2.44,1.9-9.68,7.02-20,7-3.36,0-12.96-.02-20.17-7.49-5.68-5.88-6.62-13.02-6.83-15.51,2.46,2.23,7.66,6.22,15,7,11.12,1.17,22.51-5.53,29-17-1.6-2.16-12.48-16.35-30.82-17.04Z"/><path class="d" d="M323.5,49.5c6.52-.97,13.45,3.03,18,10-.92,1.35-2.74,3.63-5.8,5.42-3.85,2.25-7.53,2.45-9.21,2.44-1.63-.11-4.21-.49-6.98-1.86-1.74-.86-6.82-3.37-7.08-6.94-.3-4.08,5.81-8.27,11.08-9.06Z"/><path class="c" d="M448.04,116c-4.7-3.06-9.4-6.13-14.1-9.19-.31-19.6-.63-39.21-.94-58.81,4.39,2.14,8.77,4.29,13.16,6.43v6.43c2.36-2.44,4.73-3.8,6.58-4.59,12.55-5.36,26.21,4.71,27.26,5.51l-5.64,11.03c-5.58-4.64-12.83-6.12-18.8-3.68-4.16,1.7-6.5,4.82-7.52,6.43v40.43Z"/><polygon class="c" points="494.29 112.57 493 63 507.45 55.46 507.45 105.57 494.29 112.57"/><path class="b" d="M500,34c3.36.82,5.79,3.69,6,7,.23,3.65-2.28,7.08-6,8h-2c-3.73-.29-6.72-3.29-7-7-.28-3.76,2.29-7.2,6-8h3Z"/><path class="c" d="M669,14c1.97,7.04,3.7,14.72,5,23,4.24,27.06,2.3,50.84-1,69,10.33,3.67,20.67,7.33,31,11-4.58-12.41-9.5-29.79-11-51-1.2-16.96.13-31.62,2-43-8.67-3-17.33-6-26-9Z"/><polygon class="b" points="660.46 61.36 717.56 38.18 706.03 31.22 649.11 54.52 660.46 61.36"/><path class="c" d="M591,112c1.39-12.46,2.25-26.55,2-42-.32-19.61-2.36-37.11-5-52,7.17,2.93,14.33,5.85,21.5,8.78-.74,3.81-1.33,8.25-1.5,13.22-.24,7.35.52,13.73,1.5,18.8,1.99-2.61,6.62-7.81,13.5-8.8,10.73-1.53,23.26,7.71,27.83,23.51,2.33,12.67,4.67,25.33,7,38-8.61-2.84-17.22-5.67-25.83-8.51,6.21-16.4,5.36-30.16-1-34-2.86-1.73-7.51-1.85-11,0-4.62,2.45-5.92,7.69-7,12-2.18,8.73-.7,16.64,1,22l-23,9Z"/><path class="c" d="M551.94,54.08c-1.75-.03-13.87-.04-21.94,9.98-6.97,8.66-7.06,20.02-3.51,28.08.93,2.11,3.41,7.32,9.2,10.79,6.94,4.16,14.03,2.75,16.25,2.21,2.17-.47,15.27-3.56,20.9-15.99,1.56-3.45,2.17-6.8,2.37-9.54.07-1.17.56-13.02-8.18-20.52-5.68-4.88-12.4-4.96-15.09-5.01Z"/><path class="c" d="M562,50.07c5.33,3.53,10.67,7.05,16,10.58v64.42c.04,7.41-2.41,11.8-4,14-7.78,10.77-27.04,13.59-47,5l6.19-15.07c6.82,4.78,11.33,4.64,13.81,4.07,14.79-3.4,19.05-36.27,19-54-.04-12.72-2.32-22.92-4-29Z"/><path class="d" d="M560.07,71.62c3.03,5.6.93,12.33-2.32,15.03-1.12.93-2.72,1.66-2.83,1.71-1.1.5-3.5,1.58-6.41,1.2-2.76-.36-4.57-1.85-5.85-2.91-1.13-.93-3.46-3.25-4.88-7.06-1.32-3.55-.79-7.57,1.39-10.48,2.26-3.01,5.76-3.58,6.8-3.77,4.54-.81,11.07.67,14.09,6.27Z"/></svg>